<svg xmlns="http://www.w3.org/2000/svg" xmlns:xlink="http://www.w3.org/1999/xlink" viewBox="0,0,256,256" width="32px" height="32px"><g fill="#ffdd57" fill-rule="nonzero" stroke="none" stroke-width="1" stroke-linecap="butt" stroke-linejoin="miter" stroke-miterlimit="10" stroke-dasharray="" stroke-dashoffset="0" font-family="none" font-weight="none" font-size="none" text-anchor="none" style="mix-blend-mode: normal"><g transform="scale(8,8)"><path d="M16,3c-1.10547,0 -2,0.89453 -2,2c0,0.08594 0.01953,0.16797 0.03125,0.25c-3.45703,0.88281 -6.03125,4.02344 -6.03125,7.75v9c0,0.56641 -0.43359,1 -1,1h-1v2h7.1875c-0.11328,0.31641 -0.1875,0.64844 -0.1875,1c0,1.64453 1.35547,3 3,3c1.64453,0 3,-1.35547 3,-3c0,-0.35156 -0.07422,-0.68359 -0.1875,-1h7.1875v-2h-1c-0.56641,0 -1,-0.43359 -1,-1v-8.71875c0,-3.75781 -2.51172,-7.10937 -6.03125,-8.03125c0.01172,-0.08203 0.03125,-0.16406 0.03125,-0.25c0,-1.10547 -0.89453,-2 -2,-2zM15.5625,7c0.14453,-0.01172 0.28906,0 0.4375,0c0.0625,0 0.125,0 0.1875,0c3.26563,0.09766 5.8125,2.96094 5.8125,6.28125v8.71875c0,0.35156 0.07422,0.68359 0.1875,1h-12.375c0.11328,-0.31641 0.1875,-0.64844 0.1875,-1v-9c0,-3.17578 2.44531,-5.77344 5.5625,-6zM16,25c0.5625,0 1,0.4375 1,1c0,0.5625 -0.4375,1 -1,1c-0.5625,0 -1,-0.4375 -1,-1c0,-0.5625 0.4375,-1 1,-1z"></path></g></g></svg>